<?xml version="1.0" encoding="utf-8"?>
<!-- Generator: Adobe Illustrator 19.2.1, SVG Export Plug-In . SVG Version: 6.00 Build 0)  -->
<svg version="1.1" id="layer" xmlns="http://www.w3.org/2000/svg" xmlns:xlink="http://www.w3.org/1999/xlink" x="0px" y="0px"
	 viewBox="0 0 652 652" style="enable-background:new 0 0 652 652;" xml:space="preserve">
<style type="text/css">
	.st0{fill:#009CDE;}
</style>
<path class="st0" d="M46.5,313.9c14.8,4,46.8,8.3,46.8,8.3l-3.4-27.9l21.6-14.8l-28.5-37.6C61.4,256.1,41.9,292.6,46.5,313.9z
	 M46.5,325C46.2,350.6,70,380.8,91,388.7c6.3-10.8,20.5-37,20.5-37L92.7,333L46.5,325z M179.2,396.1l-23.3-43.8l-35.6,7.3
	c0,0-4.6,14.8-8.8,42.2C138.1,409.6,179.2,396.1,179.2,396.1z M174.1,342.1l33,35.6l10.8-20.8l-38.7-20.5L174.1,342.1z M188.3,325
	l39.8,15.4l-3.4-58.3l-36.4,19.6V325z M181.5,292.6l60.3-33l-13.7-13.7L174.1,282L181.5,292.6z M98.4,233.4l25.6,35.9l18.2-7.4
	l18.2,14.2l35.6-27.9C196,248.2,163.3,203.8,98.4,233.4z M184.9,419.7l-33,0.8l3.4,18.8c0,0,40.7-7.1,62.6-22.8
	c-5.1-9.7-9.7-16.5-9.7-16.5L184.9,419.7z M221.3,388.7l16.5,11.4l15.9-28.4l-16.2-5.1L221.3,388.7z M241.8,302.8
	c2.1,12.3,3.5,37.5,0,46.7c6.9,2.8,17.6,7.4,17.6,7.4s9.1-28.4,0-56.9C250.7,301.7,241.8,302.8,241.8,302.8z M243.2,290.2l13.5-4.3
	l-4.9-17.4l-14.2,7.5L243.2,290.2z M221.3,230.1l-42.1-15.5l-5.1,8.6l30.4,18.7L221.3,230.1z M145.4,211.4l12.7,3l3.1-9.5l-17.7-3.3
	l-55.4,9.8l5.7,9.8L145.4,211.4z M65.2,238.4l-5.5-3.5l-33.3,44.1h15.3L65.2,238.4z M24.9,305.1c-5,33.8,5.1,58.7,8.5,61.5l10.2-1
	c0,0-11.4-40.4-14.1-61.5L24.9,305.1z M54.2,382.1l-10.3,8.5c12.6,15.3,41.8,29.1,41.8,29.1s1.5-2.9,6-11.4
	C71.8,400.1,54.2,382.1,54.2,382.1z M105,428.1l29,8.5l1.5-16.9l-30.5-4.4V428.1z M413.7,368.6c-11.3,0-17.1,5.5-17.1,19.4
	c0,13.1,4.5,19,17.4,19c4.2,0,9-0.4,12.3-1.9c0.9-0.4,1.2-0.9,1.2-1.6c0-0.9-0.4-2.8-0.7-3.6c-0.2-0.6-0.7-1-1.5-1
	c-0.7,0-1.4,0.2-2,0.4c-2.2,0.6-4.5,0.9-8.3,0.9c-6.3,0-10-1.6-10-9.9H426c0.7,0,1.2-0.1,1.6-0.4c0.5-0.4,0.7-1.2,0.7-2.3
	C428.2,376.2,427.2,368.6,413.7,368.6z M420.5,384.2h-15.6c0.1-5.9,2.3-9.2,8.4-9.2c5.9,0,7.3,2.8,7.3,7.6
	C420.6,383.1,420.6,383.7,420.5,384.2z M455.4,368.7c-5.4,0-13.2,1-17.8,3.1c-1.5,0.7-2.5,2-2.5,4.4v28.1c0,1.2,0.5,1.9,1.7,1.9h4.7
	c1.2,0,1.7-0.7,1.7-1.9v-24.5c0-0.9,0.1-1.6,0.4-2c0.4-0.4,0.9-0.7,1.4-0.9c1.2-0.5,3.9-1.2,7.7-1.2c3.5,0,4.9,0.7,5.4,2.3
	c0.3,0.9,0.4,2.6,0.4,4.1v22.2c0,1.2,0.5,1.9,1.7,1.9h4.7c1.2,0,1.7-0.7,1.7-1.9v-23.9c0-2.8-0.1-5.3-0.7-7.1
	C464.8,370.3,462.3,368.7,455.4,368.7z M490.8,368.6c-11.3,0-17.1,5.5-17.1,19.4c0,13.1,4.5,19,17.4,19c4.2,0,9-0.4,12.3-1.9
	c0.9-0.4,1.2-0.9,1.2-1.6c0-0.9-0.4-2.8-0.7-3.6c-0.2-0.6-0.7-1-1.5-1c-0.7,0-1.4,0.2-2,0.4c-2.2,0.6-4.5,0.9-8.3,0.9
	c-6.3,0-10-1.6-10-9.9h21.1c0.7,0,1.2-0.1,1.6-0.4c0.5-0.4,0.7-1.2,0.7-2.3C505.3,376.2,504.3,368.6,490.8,368.6z M497.6,384.2H482
	c0.1-5.9,2.3-9.2,8.4-9.2c5.9,0,7.3,2.8,7.3,7.6C497.7,383.1,497.7,383.7,497.6,384.2z M532.4,369c-0.9-0.2-2.3-0.4-4.3-0.4
	c-5.3,0-11.7,1.8-13.9,3.4c-1.5,1.2-2,2-2,4.5v27.7c0,1.2,0.5,1.9,1.7,1.9h4.7c1.2,0,1.7-0.7,1.7-1.9V380c0-1,0.1-1.7,0.3-2
	c0.2-0.5,0.7-0.8,1.2-1c1.3-0.7,3.6-1.2,6-1.2c0.9,0,3.1,0.1,3.9,0.1c0.8,0,1.5-0.4,1.6-1.1c0.2-1.1,0.4-3.2,0.4-4.2
	C533.5,369.8,533,369.2,532.4,369z M567.2,370.2c-3.8-1.2-8.3-1.5-13-1.5c-11.7,0-17.2,4.2-17.2,19.9c0,14.3,5.1,18.3,15.6,18.3
	c3.5,0,6.7-0.4,8.6-1.6v1.2c0,2-0.4,3.9-1.2,5.2c-1.5,2.5-4.9,3.9-16.4,4.4c-1.2,0.1-1.9,0.9-1.9,2.2c0,0.7,0.1,2.1,0.2,3.1
	c0.2,1.2,0.9,1.7,2.3,1.7c13.8,0,22.3-2.9,24.3-10.3c0.7-2.7,0.9-6.1,0.9-9.5v-29.6C569.4,371.7,568.6,370.6,567.2,370.2z
	 M561.4,396.2c0,0.6-0.1,1.2-0.2,1.5c-0.1,0.5-0.7,0.9-1.2,1.2c-1.8,0.8-4.4,1-6.9,1c-6.3,0-7.9-3.5-7.9-11.6
	c0-9.3,1.5-12.7,9.6-12.7c1.9,0,4.4,0.2,5.6,0.7c0.7,0.3,1.1,0.8,1.1,2.2V396.2z M582.2,353.2c-2.8,0-4.5,1.5-4.5,4.9
	c0,3.7,1.9,4.7,4.5,4.7c3,0,4.6-1.3,4.6-4.8C586.7,354.3,585,353.2,582.2,353.2z M584.6,369.5h-4.7c-1.3,0-1.7,0.8-1.7,2v32.8
	c0,1.3,0.6,1.9,1.7,1.9h4.7c1.2,0,1.7-0.7,1.7-1.9v-32.9C586.3,370.2,585.9,369.5,584.6,369.5z M621,371.4c-2-2-5.3-2.8-11.6-2.8
	c-3.8,0-8.5,0.6-12.2,1.7c-0.9,0.3-1.5,0.8-1.5,1.9c0,0.7,0.3,2.5,0.6,3.6c0.2,0.7,0.7,1.2,1.4,1.2c0.5,0,2-0.3,2.9-0.4
	c2.5-0.5,5.3-0.8,7.6-0.8c4.8,0,6.2,0.9,6.8,2.5c0.4,0.9,0.4,2.5,0.4,3.9v2.4c-1.9-0.2-4.8-0.3-7.1-0.3c-4.8,0-9.2,0.7-11.5,2.2
	c-2.8,1.8-4.1,4.5-4.1,8.9c0,6.3,2.3,11.7,13.4,11.7c5,0,11.3-0.9,14.1-2.1c1.2-0.4,1.8-1,2.3-1.7c0.7-0.8,0.8-2,0.8-3.3V381
	C623.5,376.1,622.9,373.2,621,371.4z M615.5,396c0,0.9-0.1,1.8-0.3,2.5c-0.1,0.5-0.6,0.9-1.2,1.2c-1.3,0.5-3.6,0.9-6.7,0.9
	c-5.5,0-6.7-2.3-6.7-5.6c0-2,0.5-3.1,1.6-3.8c1.3-0.9,3.6-1.2,7.2-1.2c2,0,4.6,0.1,6.1,0.3V396z M374.5,311.5v-39.3
	c0.4-25.6-10.8-36.4-36.2-36.4c-13.3,0-27,5.1-35.2,10.8l3.3,15.1c8.8-5.9,20.7-10.4,30.3-10.4c15.1,0,21.1,6.1,21.1,21.3v2.7
	c-43.8,2-55.9,16.8-55.9,33.6c0,15.1,12.3,26.8,29.9,26.8c10,0,18.6-4.7,25.8-13.1h0.8c2.5,8.2,9.2,13.5,24.4,12.3l1-14.1
	C375.6,320.7,374.5,319.3,374.5,311.5z M357.8,311.3c-5.3,5.7-12.9,10-21.5,10c-10.2,0-16.6-6.1-16.6-14.5
	c0-11.5,10.2-17.2,38.1-20.9V311.3z M473.8,316.6h-51.4c26.6-19.2,46.9-31.5,46.9-53.8c0-18-14.5-29.9-35.4-29.9
	c-15.1,0-27.2,5.5-36.8,13.1l5.9,14.3c9.6-7.2,18.8-11.7,29.1-11.7c12.3,0,19.4,6.8,19.4,16.2c0,16-26,31.9-54.6,53.2v14.5h77V316.6
	z M560.4,311.5v-39.3c0.4-25.6-10.8-36.4-36.2-36.4c-13.3,0-27,5.1-35.2,10.8l3.3,15.1c8.8-5.9,20.7-10.4,30.3-10.4
	c15.1,0,21.1,6.1,21.1,21.3v2.7c-43.8,2-55.9,16.8-55.9,33.6c0,15.1,12.3,26.8,29.9,26.8c10,0,18.6-4.7,25.8-13.1h0.8
	c2.5,8.2,9.2,13.5,24.4,12.3l1-14.1C561.4,320.7,560.4,319.3,560.4,311.5z M543.6,311.3c-5.3,5.7-12.9,10-21.5,10
	c-10.2,0-16.6-6.1-16.6-14.5c0-11.5,10.2-17.2,38.1-20.9V311.3z"/>
</svg>
