<svg version="1.2" xmlns="http://www.w3.org/2000/svg" viewBox="0 0 1000 1000" width="1000" height="1000">
	<title>havas-media-vector-logo-svg</title>
	<style>
		.s0 { opacity: .5;fill: #275ca8 } 
		.s1 { opacity: .3;fill: #275ca8 } 
		.s2 { fill: #275ca8 } 
	</style>
	<g id="Layer">
		<path id="Layer" class="s0" d="m47.5 244.7h95.2v190.5h-95.2z"/>
		<path id="Layer" class="s1" d="m47.5 530.4h95.2v202.4h-95.2z"/>
		<path id="Layer" class="s2" d="m249.8 530.4h95.2v202.4h-95.2zm-202.3-95.3h297.6v95.2h-297.6z"/>
		<g id="Layer">
			<path id="Layer" class="s2" d="m441 587.7v-136.3h16.7v48.9c7.8-9.1 17.7-13.6 29.6-13.6 7.3 0 13.7 1.4 19.1 4.3 5.4 2.9 9.2 6.9 11.6 11.9 2.3 5.1 3.5 12.5 3.5 22.1v62.6h-16.7v-62.6q0-12.6-5.4-18.3c-3.6-3.8-8.8-5.7-15.4-5.7-5 0-9.6 1.3-14 3.9q-6.6 3.9-9.3 10.5c-1.9 4.4-2.8 10.5-2.8 18.2v54h-16.9z"/>
			<path id="Layer" fill-rule="evenodd" class="s2" d="m606.8 575.5c-6.2 5.3-12.2 9-17.9 11.2-5.7 2.2-11.9 3.3-18.5 3.3-10.9 0-19.2-2.6-25-7.9-5.8-5.3-8.7-12.1-8.7-20.3 0-4.8 1.1-9.3 3.3-13.3 2.2-4 5.1-7.2 8.6-9.6 3.6-2.4 7.6-4.2 12-5.5 3.3-0.9 8.2-1.7 14.9-2.5 13.5-1.6 23.5-3.5 29.8-5.8 0.1-2.3 0.1-3.8 0.1-4.4 0-6.8-1.6-11.6-4.7-14.4-4.3-3.8-10.6-5.7-19.1-5.7-7.9 0-13.7 1.4-17.4 4.1-3.8 2.8-6.5 7.6-8.3 14.6l-16.4-2.2c1.5-7 3.9-12.7 7.4-17 3.4-4.3 8.3-7.6 14.8-9.9 6.4-2.3 13.9-3.5 22.4-3.5 8.4 0 15.3 1 20.5 3 5.3 2 9.1 4.5 11.6 7.5 2.5 3 4.2 6.8 5.2 11.4 0.6 2.9 0.8 8 0.8 15.4v22.3c0 15.6 0.4 25.4 1.1 29.5 0.7 4.1 2.1 8.1 4.2 11.9h-17.5c-1.6-3.5-2.7-7.5-3.2-12.2zm-1.4-37.4q-9.1 3.8-27.3 6.3c-6.9 1-11.8 2.1-14.6 3.3-2.9 1.2-5 3.1-6.6 5.4-1.6 2.3-2.3 5-2.3 8 0 4.5 1.7 8.2 5.1 11.2 3.4 3 8.3 4.5 14.8 4.5 6.4 0 12.2-1.4 17.2-4.2 5-2.8 8.7-6.7 11.1-11.6 1.8-3.8 2.7-9.4 2.7-16.7v-6.2z"/>
			<path id="Layer" class="s2" d="m671.1 587.7l-37.6-98.8h17.7l21.2 59.1c2.3 6.4 4.4 13 6.3 19.9 1.5-5.2 3.6-11.5 6.2-18.8l21.9-60.3h17.2l-37.4 98.8h-15.5z"/>
			<path id="Layer" fill-rule="evenodd" class="s2" d="m798.8 575.5c-6.2 5.3-12.2 9-17.9 11.2-5.7 2.2-11.9 3.3-18.5 3.3-10.9 0-19.2-2.6-25-7.9-5.8-5.3-8.7-12.1-8.7-20.3 0-4.8 1.1-9.3 3.3-13.3q3.3-6 8.7-9.6c3.6-2.4 7.6-4.2 12-5.5 3.3-0.9 8.2-1.7 14.9-2.5 13.5-1.6 23.5-3.5 29.9-5.8 0.1-2.3 0.1-3.8 0.1-4.4 0-6.8-1.6-11.6-4.7-14.4-4.3-3.8-10.6-5.7-19.1-5.7-7.9 0-13.7 1.4-17.4 4.1-3.7 2.8-6.5 7.6-8.3 14.6l-16.4-2.2c1.5-7 3.9-12.7 7.4-17 3.4-4.3 8.3-7.6 14.8-9.9 6.4-2.3 13.9-3.5 22.4-3.5 8.4 0 15.3 1 20.5 3 5.3 2 9.1 4.5 11.6 7.5 2.5 3 4.2 6.8 5.2 11.4 0.6 2.9 0.8 8 0.8 15.4v22.3c0 15.6 0.4 25.4 1.1 29.5 0.7 4.1 2.1 8.1 4.2 11.9h-17.5c-1.8-3.5-2.9-7.5-3.4-12.2zm-1.4-37.4c-6.1 2.5-15.2 4.6-27.4 6.3-6.9 1-11.7 2.1-14.6 3.3-2.9 1.2-5.1 3.1-6.6 5.4-1.6 2.4-2.3 5-2.3 8 0 4.5 1.7 8.2 5.1 11.2 3.4 3 8.3 4.5 14.8 4.5 6.4 0 12.2-1.4 17.2-4.2 5-2.8 8.7-6.7 11.1-11.6 1.8-3.8 2.7-9.4 2.7-16.7z"/>
		</g>
		<g id="Layer">
			<path id="Layer" class="s2" d="m828.2 558.2l16.5-2.6q1.4 9.9 7.8 15.3c4.2 3.5 10.2 5.3 17.8 5.3 7.7 0 13.4-1.6 17.1-4.7 3.7-3.1 5.6-6.8 5.6-11 0-3.8-1.6-6.7-4.9-8.9q-3.4-2.2-17.1-5.7c-12.3-3.1-20.8-5.8-25.5-8-4.7-2.3-8.3-5.4-10.8-9.4-2.5-4-3.7-8.4-3.7-13.3 0-4.4 1-8.5 3-12.2 2-3.8 4.8-6.9 8.2-9.4 2.6-1.9 6.2-3.5 10.6-4.9 4.5-1.3 9.3-2 14.5-2q11.7 0 20.4 3.3c5.9 2.2 10.2 5.3 13 9.1 2.8 3.8 4.7 8.9 5.8 15.3l-16.4 2.2c-0.7-5.1-2.9-9.1-6.5-11.9-3.6-2.8-8.6-4.3-15.1-4.3-7.7 0-13.2 1.3-16.5 3.8-3.3 2.5-4.9 5.5-4.9 8.9 0 2.2 0.7 4.1 2 5.9 1.4 1.8 3.5 3.3 6.4 4.5 1.7 0.6 6.6 2 14.8 4.3 11.8 3.2 20.1 5.7 24.8 7.8 4.7 2 8.4 5 11 8.8 2.7 3.8 4 8.6 4 14.3 0 5.6-1.6 10.8-4.9 15.8-3.3 4.9-7.9 8.7-14.1 11.4-6.1 2.7-13.1 4-20.8 4-12.8 0-22.6-2.7-29.3-8-6.6-5.3-10.9-13.2-12.8-23.7z"/>
		</g>
		<g id="Layer">
			<path id="Layer" class="s2" d="m441 742.5v-98.8h15v13.9c3.1-4.8 7.2-8.7 12.4-11.7 5.1-2.9 11-4.4 17.6-4.4 7.3 0 13.3 1.5 18 4.6 4.7 3 8 7.3 9.9 12.7 7.8-11.5 18-17.3 30.5-17.3 9.8 0 17.3 2.7 22.6 8.1 5.3 5.4 7.9 13.8 7.9 25.1v67.8h-16.7v-62.2c0-6.7-0.5-11.5-1.6-14.5-1.1-2.9-3.1-5.3-5.9-7.1-2.9-1.8-6.2-2.7-10-2.7-6.9 0-12.7 2.3-17.3 6.9q-6.9 6.9-6.9 22.2v57.4h-16.7v-64.2c0-7.4-1.4-13-4.1-16.7-2.7-3.7-7.2-5.6-13.4-5.6-4.7 0-9.1 1.2-13.1 3.7-4 2.5-6.9 6.1-8.7 10.9-1.8 4.8-2.7 11.7-2.7 20.6v51.2h-16.8z"/>
			<path id="Layer" fill-rule="evenodd" class="s2" d="m668.4 710.6l17.3 2.1c-2.7 10.1-7.8 17.9-15.2 23.5-7.4 5.6-16.8 8.4-28.3 8.4-14.4 0-25.9-4.4-34.4-13.3-8.5-8.9-12.7-21.4-12.7-37.4 0-16.6 4.3-29.5 12.8-38.7q12.8-13.8 33.3-13.8 19.8 0 32.4 13.5c8.4 9 12.6 21.6 12.6 37.9 0 1 0 2.5-0.1 4.5h-73.7c0.6 10.9 3.7 19.1 9.2 24.9 5.5 5.8 12.4 8.7 20.6 8.7 6.1 0 11.4-1.6 15.7-4.8 4.5-3.2 7.9-8.4 10.5-15.5zm-55-27h55.1c-0.7-8.3-2.9-14.5-6.3-18.7-5.3-6.4-12.2-9.7-20.7-9.7-7.7 0-14.2 2.6-19.4 7.7q-7.8 7.8-8.7 20.7z"/>
			<path id="Layer" fill-rule="evenodd" class="s2" d="m771.9 742.5v-12.5q-9.4 14.7-27.6 14.7c-7.9 0-15.1-2.2-21.7-6.5-6.6-4.3-11.7-10.4-15.3-18.2-3.6-7.8-5.4-16.7-5.4-26.8 0-9.9 1.6-18.8 4.9-26.8 3.3-8 8.2-14.2 14.8-18.5 6.6-4.3 13.9-6.4 22-6.4 6 0 11.3 1.3 15.9 3.8 4.7 2.5 8.4 5.8 11.3 9.8v-48.9h16.6v136.3zm-52.9-49.3c0 12.6 2.7 22.1 8 28.4 5.3 6.3 11.6 9.4 18.9 9.4 7.3 0 13.5-3 18.7-9 5.2-6 7.7-15.1 7.7-27.4 0-13.5-2.6-23.4-7.8-29.8-5.2-6.3-11.6-9.5-19.3-9.5-7.4 0-13.6 3-18.6 9.1-5.1 6.1-7.6 15.7-7.6 28.8z"/>
			<path id="Layer" class="s2" d="m815 625.4v-19.2h16.7v19.2zm0 117.1v-98.8h16.7v98.8z"/>
		</g>
		<g id="Layer">
			<path id="Layer" fill-rule="evenodd" class="s2" d="m923 730.3c-6.2 5.3-12.2 9-17.9 11.2-5.7 2.2-11.9 3.3-18.5 3.3-10.9 0-19.2-2.6-25-7.9-5.8-5.3-8.7-12.1-8.7-20.3 0-4.8 1.1-9.3 3.3-13.3 2.2-4 5.1-7.2 8.6-9.6 3.6-2.4 7.6-4.2 12-5.5 3.3-0.9 8.2-1.7 14.9-2.5 13.5-1.6 23.5-3.5 29.8-5.8 0.1-2.3 0.1-3.8 0.1-4.4 0-6.8-1.6-11.6-4.7-14.4-4.3-3.8-10.6-5.7-19.1-5.7-7.9 0-13.7 1.4-17.4 4.1-3.8 2.8-6.5 7.6-8.3 14.6l-16.4-2.2c1.5-7 3.9-12.7 7.4-17 3.4-4.3 8.3-7.6 14.8-9.9 6.4-2.3 13.9-3.5 22.4-3.5 8.4 0 15.3 1 20.5 3 5.3 2 9.1 4.5 11.6 7.5 2.5 3 4.2 6.8 5.2 11.4 0.6 2.9 0.8 8 0.8 15.4v22.3c0 15.6 0.4 25.4 1.1 29.5 0.7 4.1 2.1 8.1 4.2 11.9h-17.5c-1.6-3.5-2.7-7.6-3.2-12.2zm-1.4-37.4q-9.2 3.8-27.3 6.3c-6.9 1-11.8 2.1-14.6 3.3-2.9 1.2-5 3.1-6.6 5.4-1.5 2.4-2.3 5-2.3 8 0 4.5 1.7 8.2 5.1 11.2 3.4 3 8.3 4.5 14.8 4.5 6.4 0 12.2-1.4 17.2-4.2 5-2.8 8.7-6.7 11.1-11.6 1.8-3.8 2.7-9.4 2.7-16.7v-6.2z"/>
		</g>
	</g>
</svg>