<svg version="1.2" xmlns="http://www.w3.org/2000/svg" viewBox="0 0 1016 1016" width="1016" height="1016">
	<title>infineon-svg</title>
	<style>
		.s0 { fill: #ec1840 } 
		.s1 { fill: #0066b3 } 
	</style>
	<g id="Layer">
		<g id="Layer">
			<path id="Layer" class="s0" d="m301.7 301.2c0 0-23.7 3.9-49 10.4-19.1 4.9-32.3 9.1-37.2 10.6v-0.1c-7.3 2.2-14.3 4.6-21.3 7 7.1 7 11.5 16.5 11.9 27.1 5.6-2.5 11.3-4.9 17.1-7.2v-0.1c6.6-2.3 24.2-8.8 39.4-13.9 19-6.4 44.7-14.3 44.7-14.3 74.9-20.7 157.9-32.7 235.2-32.1-89.1-5.3-170.2-0.1-240.8 12.6m709.3 281.9c-80.2 72.9-262.9 115.3-471.6 115.3-283.5 0-466.7-83.1-479.5-193.2-4.7-41.3 27.8-81.3 82-115.5-9.6-7.2-15.8-18.5-16.1-31.3-78.1 41-122.4 94.9-122.4 149.7 0 121.2 216.8 224 538.9 219.5 219.1-3 385.6-65.5 469.8-142l-1.2-2.4"/>
			<path id="Layer" class="s1" d="m136.5 357.6c0-16.3 13.2-29.6 29.5-29.6 16.4 0 29.6 13.3 29.6 29.6 0 16.4-13.2 29.6-29.6 29.6-16.3 0-29.5-13.2-29.5-29.6z"/>
			<path id="Layer" class="s1" d="m153 580.1v-169.6l27.8-3.7v173.3c0 0-27.8 0-27.8 0z"/>
			<path id="Layer" class="s1" d="m274.6 580.1v-97c0-11.1-1-15.6-3.2-18.8-2-2.8-5.4-3.6-9.2-3.6-5.3 0-13.4 4.5-20.1 12.7v106.7h-27.7v-105.8c0-17.3-2.3-27-3.7-34.9l26-6.8c0.8 2.6 3.2 9.6 3.5 17 7.1-8.8 20.1-16.2 32.9-16.2 9.8 0 17.7 4 22.6 10.3 5.7 7.1 6.6 16.7 6.6 26.3v110.1c0 0-27.7 0-27.7 0z"/>
			<path id="Layer" class="s1" d="m393 400.7c-3.2-2.5-8.4-4.2-13.3-4.2-6.9 0-11.1 6.5-11.1 17.6v22.1h26.1l-5.2 24.4h-20.9v119.5h-28.5v-119.5h-9.5v-24.4h9.5c0 0-0.4-9.9-0.4-19 0-21.6 7.1-32.9 13.7-38.6 6.7-5.4 14.2-7.1 21.4-7.1 10.3 0 18.7 2.3 26.1 7.7l-7.9 21.6"/>
			<path id="Layer" class="s1" d="m416.1 580.1v-143l28.2-3.7v146.7c0 0-28.2 0-28.2 0zm13.5-164c-10.1 0-18.2-8.2-18.2-18.4 0-10.2 8.4-18.4 18.7-18.4 10 0 18.2 8.2 18.2 18.4 0 10.2-8.4 18.4-18.7 18.4z"/>
			<path id="Layer" class="s1" d="m540.1 580.1v-97c0-11.1-1-15.6-3.2-18.8-1.9-2.8-5.4-3.6-9.1-3.6-5.4 0-13.5 4.5-20.2 12.7v106.7h-27.7v-105.8c0-17.3-2.2-27-3.7-34.9l26.1-6.8c0.7 2.6 3.1 9.6 3.4 17 7.1-8.8 20.1-16.2 32.9-16.2 9.8 0 17.7 4 22.6 10.3 5.6 7.1 6.6 16.7 6.6 26.3v110.1c0 0-27.7 0-27.7 0z"/>
			<path id="Layer" fill-rule="evenodd" class="s1" d="m623.8 516m0 2.9c0 9.3 0.7 17.8 4.2 25.2 4.1 8.8 11.2 13.7 19.9 13.7 10 0 18.6-5.2 27.3-14.2l11 20.6c-12.3 13.4-25.5 19.4-40.8 19.4-32.7 0-51.4-28.1-51.4-75.8 0-24.7 4.3-42.9 13.3-56.5 8.6-12.7 20.4-19 34.7-19 13.5 0 24.3 5.4 31.9 15.4 10.1 13 14 30.6 14 62.1v6.2h-64.1zm32.7-52.5c-2.7-6.5-7.2-10.5-14.3-10.5-12.5 0-17.9 11.6-18.4 37.2h35.9c0-11.4-1-21-3.2-26.7z"/>
			<path id="Layer" fill-rule="evenodd" class="s1" d="m755.2 583.8c-38.4 0-48.4-40.8-48.7-76-0.3-35.5 12.5-75.5 48.9-75.5 28.7 0 49.4 25.9 49.4 74.9 0 36.6-12 76.6-49.6 76.6zm0-126c-18.7 0-18.7 34.1-18.7 48.9 0 15.6-0.5 51.6 19.4 51.6 18.4 0 18.4-36 18.4-51.1 0-15.6 0.8-49.3-19.1-49.3z"/>
			<path id="Layer" class="s1" d="m888.4 580.1v-97c0-11.1-1-15.6-3.3-18.8-1.9-2.8-5.3-3.6-9.1-3.6-5.3 0-13.5 4.5-20.1 12.7v106.7h-27.7v-105.8c0-17.3-2.3-27-3.7-34.9l26-6.8c0.8 2.6 3.2 9.6 3.5 17 7.1-8.8 20.1-16.2 32.9-16.2 9.8 0 17.7 4 22.6 10.3 5.6 7.1 6.6 16.7 6.6 26.3v110.1c0 0-27.7 0-27.7 0z"/>
		</g>
	</g>
</svg>